<?xml version="1.0" encoding="UTF-8" standalone="no"?>
<svg
   xmlns:dc="http://purl.org/dc/elements/1.1/"
   xmlns:cc="http://creativecommons.org/ns#"
   xmlns:rdf="http://www.w3.org/1999/02/22-rdf-syntax-ns#"
   xmlns:svg="http://www.w3.org/2000/svg"
   xmlns="http://www.w3.org/2000/svg"
   xmlns:sodipodi="http://sodipodi.sourceforge.net/DTD/sodipodi-0.dtd"
   xmlns:inkscape="http://www.inkscape.org/namespaces/inkscape"
   width="900"
   height="200"
   version="1.1"
   inkscape:version="0.92.3 (2405546, 2018-03-11)"
   sodipodi:docname="banner.svg"
   id="svg860">
  <rect
     id="backgroundrect"
     width="518.91888%"
     height="518.91888%"
     x="0"
     y="163"
     style="fill:none;stroke:none;stroke-width:5.18918896"
     data-darkreader-inline-fill=""
     data-darkreader-inline-stroke="" />
  <defs
     id="defs2" />
  <sodipodi:namedview
     id="base"
     pagecolor="#ffffff"
     bordercolor="#666666"
     borderopacity="1.0"
     inkscape:pageopacity="0.0"
     inkscape:pageshadow="2"
     inkscape:zoom="2.8"
     inkscape:cx="365.9781"
     inkscape:cy="73.360899"
     inkscape:document-units="mm"
     inkscape:current-layer="layer1"
     showgrid="false"
     inkscape:window-width="1872"
     inkscape:window-height="2082"
     inkscape:window-x="1924"
     inkscape:window-y="0"
     inkscape:window-maximized="0"
     width="73px" />
  <metadata
     id="metadata5">
    <rdf:RDF>
      <cc:Work
         rdf:about="">
        <dc:format>image/svg+xml</dc:format>
        <dc:type
           rdf:resource="http://purl.org/dc/dcmitype/StillImage" />
        <dc:title />
      </cc:Work>
    </rdf:RDF>
  </metadata>
  <g
     class="currentLayer"
     id="g862">
    <title
       id="title854">Layer 1</title>
    <g
       inkscape:label="Layer 1"
       inkscape:groupmode="layer"
       id="layer1"
       class="">
      <path
         style="fill:#b380ff;stroke:#ff0000;stroke-width:0px;stroke-miterlimit:4;stroke-dasharray:none;stroke-opacity:1"
         d="M 437.8323,4.7857056 A 95.399559,95.399559 0 0 0 416.57319,7.3222857 V 23.266016 74.063826 L 460.56508,48.664917 498.6563,26.672358 A 95.399559,95.399559 0 0 0 478.30004,13.876807 L 437.8323,37.241338 Z m -33.31533,6.0920604 a 95.399559,95.399559 0 0 0 -21.25911,11.25416 V 69.159212 L 355.12924,52.920008 a 95.399559,95.399559 0 0 0 -8.49908,19.640562 l 13.89494,8.022227 43.99274,25.398123 -8.7e-4,-50.797081 z m 103.00087,24.16922 -13.95505,8.05694 -43.99188,25.398956 43.99188,25.398071 38.3199,22.123797 a 95.399559,95.399559 0 0 0 1.43133,-15.84202 95.399559,95.399559 0 0 0 -0.40486,-8.112885 L 492.0891,68.502882 520.2567,52.239855 A 95.399559,95.399559 0 0 0 507.51783,35.046986 Z m -163.5818,49.363147 a 95.399559,95.399559 0 0 0 -1.42116,15.772587 95.399559,95.399559 0 0 0 0.41415,8.19503 l 40.91577,23.62124 -28.18791,16.27397 a 95.399559,95.399559 0 0 0 12.76847,17.17601 l 13.94574,-8.05108 43.99191,-25.3989 -43.99191,-25.39817 z M 470.9799,94.542959 v 50.797021 44.25865 a 95.399559,95.399559 0 0 0 21.2591,-11.12796 v -47.10522 l 28.30143,16.3392 a 95.399559,95.399559 0 0 0 8.58036,-19.59401 l -14.14902,-8.16877 z m -11.69286,31.637501 -43.99103,25.39895 -38.20053,22.05519 a 95.399559,95.399559 0 0 0 20.33683,12.80744 l 40.59562,-23.43905 8.4e-4,32.57509 a 95.399559,95.399559 0 0 0 21.2591,-2.54172 v -16.058 z"
         id="path1635-4"
         inkscape:connector-curvature="0"
         data-darkreader-inline-fill=""
         data-darkreader-inline-stroke="" />
      <text
         xml:space="preserve"
         style="font-style:normal;font-variant:normal;font-weight:normal;font-stretch:normal;font-size:137.83679199px;line-height:1.25;font-family:Bahnschrift;font-feature-settings:normal;text-align:start;letter-spacing:0px;word-spacing:0px;writing-mode:lr-tb;text-anchor:start;fill:#b380ff;fill-opacity:1;stroke:none;stroke-width:3.44587064px;"
         x="250.71428"
         y="153.06659"
         id="text1796"
         data-darkreader-inline-fill=""
         data-darkreader-inline-stroke=""><tspan
           sodipodi:role="line"
           id="tspan1794"
           x="250.71428"
           y="153.06659"
           style="font-style:normal;font-variant:normal;font-weight:normal;font-stretch:normal;font-size:137.83679199px;font-family:Bahnschrift;font-feature-settings:normal;text-align:start;writing-mode:lr-tb;text-anchor:start;fill:#b380ff;stroke-width:3.44587064px;"
           data-darkreader-inline-fill="">F</tspan></text>
      <text
         xml:space="preserve"
         style="font-style:normal;font-variant:normal;font-weight:normal;font-stretch:normal;font-size:137.83679199px;line-height:1.25;font-family:Bahnschrift;font-feature-settings:normal;text-align:start;letter-spacing:0px;word-spacing:0px;writing-mode:lr-tb;text-anchor:start;fill:#b380ff;fill-opacity:1;stroke:none;stroke-width:3.44587064px;"
         x="-625.75403"
         y="151.089"
         id="text1796-1"
         transform="scale(-1,1)"
         data-darkreader-inline-fill=""
         data-darkreader-inline-stroke=""><tspan
           sodipodi:role="line"
           id="tspan1794-7"
           x="-625.75403"
           y="151.089"
           style="font-style:normal;font-variant:normal;font-weight:normal;font-stretch:normal;font-size:137.83679199px;font-family:Bahnschrift;font-feature-settings:normal;text-align:start;writing-mode:lr-tb;text-anchor:start;fill:#b380ff;stroke-width:3.44587064px;"
           data-darkreader-inline-fill="">L</tspan></text>
    </g>
  </g>
</svg>
